<?xml version="1.0" encoding="UTF-8"?>
<svg id="_图层_12" data-name="图层 12" xmlns="http://www.w3.org/2000/svg" xmlns:xlink="http://www.w3.org/1999/xlink" viewBox="0 0 1295.23 455.84">
  <defs>
    <style>
      .cls-1 {
        fill: url(#_未命名的渐变_8);
      }

      .cls-1, .cls-2, .cls-3 {
        stroke-width: 0px;
      }

      .cls-2 {
        fill: url(#_未命名的渐变_35);
      }

      .cls-3 {
        fill: url(#_未命名的渐变_32);
      }
    </style>
    <linearGradient id="_未命名的渐变_8" data-name="未命名的渐变 8" x1="0" y1="278.76" x2="1191.72" y2="278.76" gradientUnits="userSpaceOnUse">
      <stop offset="0" stop-color="#3dc1be"/>
      <stop offset="1" stop-color="#52d8bf"/>
    </linearGradient>
    <linearGradient id="_未命名的渐变_32" data-name="未命名的渐变 32" x1="1116.05" y1="160.9" x2="1323.39" y2="55.26" gradientUnits="userSpaceOnUse">
      <stop offset="0" stop-color="#21aac1"/>
      <stop offset="1" stop-color="#79f2b8"/>
    </linearGradient>
    <linearGradient id="_未命名的渐变_35" data-name="未命名的渐变 35" x1="1166.52" y1="60.12" x2="1292.65" y2="210.43" gradientUnits="userSpaceOnUse">
      <stop offset="0" stop-color="#e28f50"/>
      <stop offset=".25" stop-color="#e69c4f"/>
      <stop offset=".73" stop-color="#f1c04c"/>
      <stop offset="1" stop-color="#f9d84b"/>
    </linearGradient>
  </defs>
  <path class="cls-1" d="m206.88,374.24l-29.39-77.63h-93.27l-30.68,77.63H0L109.54,101.68l46.89,15.44,103.95,257.12h-53.5Zm-43.89-115.9l-25.96-68.55c-.78-2.05-1.48-4.15-2.1-6.25l-3.28-9.8-2.91,9.05c-.73,2.59-1.6,5.17-2.58,7.66l-26.83,67.89h63.66Zm945.2,117.76c-41.7,0-70.76-14.22-86.35-42.27-12.23-21.99-12.23-45.64-12.23-53.41s0-31.78,11.77-54.11c14.99-28.45,42.9-42.88,82.95-42.88,34.09,0,61.07,13.96,74.02,38.29,11.86,22.28,13.38,49.21,13.38,70.18v8h-132.49c6.36,21.83,23.76,36.35,43.88,36.35,21.84,0,36.65-4.01,46.61-12.61l5.25-4.54,31.3,27.29-6.29,6.06c-21.65,20.85-48.44,23.66-71.79,23.66Zm36.01-113.07c-2.89-26.15-17.72-40.62-39.89-40.62-25.2,0-40.23,12.29-44.82,40.62h84.71Zm-436.79,109.24v-189.49l50.92,17.03v172.46h-50.92Zm0-213.26v-49.65h50.92v49.65h-50.92Zm-249.48,215.23v-118.53c.02-1.08.38-26.71-15.02-45.8-5.97-7.4-23.56-24.61-58-24.61s-49.68,17.49-49.68,17.49l-49.92-18.4v189.86h49.92v-136.96c4.94-3.77,22.59-11.19,45.41-11.19,20.21,0,27.38,13.01,27.38,49.72v98.43h49.92Zm517.64,0v-118.53c.02-1.08.38-26.71-15.02-45.8-5.97-7.4-23.56-24.61-58-24.61s-49.68,17.49-49.68,17.49l-49.92-18.4v189.86h49.92v-136.96c4.94-3.77,22.59-11.19,45.41-11.19,20.21,0,27.38,13.01,27.38,49.72v98.43h49.92Zm-401.22,81.6c-34.24,0-61.04-11.07-62.16-11.54l-6.85-2.87,12.81-38.3,8.09,3.69c13.33,6.08,31.39,8.25,43.84,8.25,25.04,0,42.25-8.36,44.34-47.63-7.67,4.05-17.27,6.85-27.94,6.85-40.02,0-66.18-13.52-82.35-42.55-9.19-16.5-13.78-40.77-12.28-64.93,1.64-26.29,9.85-48.08,23.13-61.37,8.51-8.51,27.08-22.78,55.85-22.78s43.8,17.11,43.8,17.11l49.93-15.41-.19,180.61c0,27.16-3.39,45.66-21.3,65.6-14.43,16.07-39.48,25.28-68.73,25.28Zm1.58-232.43c-9.82,0-17.48,3.35-23.43,10.24-10.33,11.98-14.72,35.17-11.17,59.07,4.55,30.65,24.43,41.53,40.07,41.53,14.21,0,25.89-4.45,33.23-12.59v-87.75c-3.26-3.29-16.43-10.5-38.7-10.5Z"/>
  <g>
    <path class="cls-3" d="m1191.16,104.06v52.04l-104.07-52.04,52.04-26.02,52.03,26.01Zm13.33-58.7v50.45l90.74,45.37V0l-90.74,45.37Z"/>
    <path class="cls-2" d="m1295.23,156.1v52.16l-90.74-45.49v-52.04l90.74,45.37Zm-104.07-104.06l-37.12,18.56,37.12,18.56v-37.12Z"/>
  </g>
</svg>