<?xml version="1.0" encoding="utf-8"?>
<!-- Generator: Adobe Illustrator 28.0.0, SVG Export Plug-In . SVG Version: 6.00 Build 0)  -->
<svg version="1.1" id="图层_1" xmlns="http://www.w3.org/2000/svg" xmlns:xlink="http://www.w3.org/1999/xlink" x="0px" y="0px"
	 viewBox="0 0 719.2 144.6" style="enable-background:new 0 0 719.2 144.6;" xml:space="preserve">
<style type="text/css">
	.st0{fill:#FFFFFF;}
</style>
<g>
	<path class="st0" d="M24.2,142.6C12,142.6,2,132.6,2,120.3V24.2C2,12,12,2,24.2,2H695c12.3,0,22.2,10,22.2,22.2v96.1
		c0,12.3-10,22.2-22.2,22.2H24.2z"/>
	<path d="M695,4c11.2,0,20.2,9.1,20.2,20.2v96.1c0,11.2-9.1,20.2-20.2,20.2H24.2c-11.2,0-20.2-9.1-20.2-20.2V24.2
		C4,13.1,13.1,4,24.2,4H695 M695,0H24.2C10.8,0,0,10.8,0,24.2v96.1c0,13.4,10.8,24.2,24.2,24.2H695c13.4,0,24.2-10.8,24.2-24.2V24.2
		C719.2,10.8,708.4,0,695,0L695,0z"/>
</g>
<g>
	<g>
		<path d="M229.1,26.4L229.1,26.4L229.1,26.4L229.1,26.4L229.1,26.4c-2.2-1.7-4.4-3-6.7-4.4c-1.7-1-3.7-0.5-4.9,1l-14.4,19.1l-1,1.4
			c-1.6,2.1-4,3.2-6.6,3c-1,0-1.9,0-2.8,0c-7.2,0.4-14.2,3.9-18.9,10.2c-3.7,5.1-5.4,11-5.1,16.7c0.1,1,0.7,2,1.7,2.4
			c2,0.9,3.5,2.7,3.9,5.1c0.5,3.3-1.5,6.6-4.7,7.6c-3.8,1.1-7.7-1.2-8.5-5c-0.4-2.1,0.1-4.1,1.3-5.7c0.7-0.9,1-1.9,0.9-3
			c-0.7-7.5,1.3-15.2,6.2-21.6c6.1-8.1,15.4-12.5,24.9-12.5c1.8,0,3.6-0.9,4.6-2.4L212.1,21c1-1.4,0.3-3.3-1.3-3.8
			c-22.1-6.5-46.9,0.8-61.8,20.1c-19.2,25.1-14.5,61.2,10.4,80.5c2.4,1.8,4.8,3.4,7.3,4.8c1.7,1,3.7,0.4,4.9-1l14.4-19.1l1-1.4
			c1.6-2.1,4-3.2,6.6-3c1,0,1.9,0,2.8,0c7.2-0.4,14.2-3.9,18.9-10.2c3.7-5.1,5.4-11,5.1-16.7c-0.1-1-0.7-2-1.7-2.4
			c-2-0.9-3.5-2.7-3.9-5.1c-0.5-3.3,1.5-6.6,4.7-7.6c3.8-1.1,7.7,1.2,8.5,5c0.4,2.1-0.1,4.1-1.3,5.7c-0.7,0.9-1,1.9-0.9,3
			c0.7,7.5-1.3,15.2-6.2,21.6c-6.1,8.1-15.4,12.5-24.9,12.5c-1.8,0-3.6,0.9-4.6,2.4L177,123.6c-1,1.4-0.3,3.3,1.2,3.8
			c22.3,6.5,47.4-0.9,62.2-20.6C259.5,81.5,254.5,45.4,229.1,26.4z"/>
		<g>
			<path d="M329.4,39.2v-1.5c0-1-0.9-2-2-2h-49c-1,0-2,0.9-2,2v3c0,1,0.9,2,2,2H320c1.2,0,2.1,1,1.9,2.2
				c-1.1,7.7-4.9,22.2-16.3,36.1c-0.8,1-2.3,1-3,0c-9.5-12.2-12.5-24.8-13.3-29.3c-0.2-1-1.1-1.7-2.1-1.6l-1.5,0.2l-1.3,0.2
				c-1.1,0.1-1.9,1.1-1.7,2.3c1,5.3,4.6,19.8,15.7,33.7c0.7,0.8,0.6,2-0.2,2.7c-13.6,12.5-25.9,15.2-30.3,15.9c-1,0.1-1.7,1-1.7,1.9
				v3c0,1.1,1,2.1,2.2,1.9c5.2-0.6,19.1-3.5,34.6-17.7c0.8-0.7,1.9-0.7,2.7,0c7.4,6.9,17,13.5,29.8,17.6c1,0.3,2.2-0.3,2.5-1.3
				l0.9-2.9c0.3-1-0.3-2.1-1.3-2.4c-11.7-3.7-20.3-9.7-27.1-15.9c-0.8-0.7-0.9-1.9-0.1-2.7C329.2,64.1,329.4,40.2,329.4,39.2z"/>
			<path d="M363.4,32.6h-3c-1,0-2,0.9-2,2v10.5c0,1-0.9,2-2,2h-7c-1,0-2,0.9-2,2v3c0,1,0.9,2,2,2h7c1,0,2,0.9,2,2v15.1
				c0,1-0.9,2-2,2h-7c-1,0-2,0.9-2,2V78c0,1,0.9,2,2,2h7c1,0,2,0.9,2,2v14.4c0,3.1-1.2,8.2-9.1,8.9c-1,0.1-1.8,1-1.8,1.9v3
				c0,1.1,1,2.1,2.1,2c7.7-0.7,15.8-5,15.8-15.7V81.9c0-1,0.9-2,2-2h6.3c1,0,2-0.9,2-2v-3c0-1-0.9-2-2-2h-6.3c-1,0-2-0.9-2-2V55.9
				c0-1,0.9-2,2-2h6.3c1,0,2-0.9,2-2v-3c0-1-0.9-2-2-2h-6.3c-1,0-2-0.9-2-2V34.4C365.4,33.5,364.5,32.6,363.4,32.6z"/>
			<path d="M378.9,109.5c0,1,0.9,2,2,2h22c9.7,0,17.7-7.5,17.7-16.9V48.3c0-1-0.9-2-2-2h-37.8c-1,0-2,0.9-2,2L378.9,109.5
				L378.9,109.5z M403,104.6h-15.1c-1,0-2-0.9-2-2V81.9c0-1,0.9-2,2-2h24c1,0,2,0.9,2,2v12.8C413.8,100.2,409,104.6,403,104.6z
				 M413.8,55.2V71c0,1-0.9,2-2,2h-24c-1,0-2-0.9-2-2V55.2c0-1,0.9-2,2-2h24C412.9,53.3,413.8,54.1,413.8,55.2z"/>
			<path d="M409.1,32.6h-19.4c-1,0-2,0.9-2,2v3c0,1,0.9,2,2,2h19.4c1,0,2-0.9,2-2v-3C411,33.5,410.1,32.6,409.1,32.6z"/>
			<path d="M483.4,35.6h-40.6c-1,0-2,0.9-2,2v3c0,1,0.9,2,2,2h40.6c1,0,2-0.9,2-2v-3C485.4,36.5,484.5,35.6,483.4,35.6z"/>
			<path d="M466.1,70.1h28.3c1,0,2-0.9,2-2v-3c0-1-0.9-2-2-2h-62.5c-1,0-2,0.9-2,2v3c0,1,0.9,2,2,2h19.3c1.5,0,2.5,1.7,1.6,3
				L440,96.3c-0.4,0.5-0.6,1-0.8,1.5c-1,3.1-0.6,6.5,1.4,9.2c2,2.9,5.4,4.6,9,4.6H485c1.6,0,3-0.8,3.9-2.1c0.9-1.3,1-2.9,0.3-4.3
				L481,89.5c-0.5-1-1.7-1.3-2.7-0.9l-2.7,1.3c-1,0.5-1.3,1.7-0.9,2.7l4.9,9.3c0.7,1.3-0.3,2.9-1.7,2.9h-28.1
				c-1.4,0-2.7-0.6-3.4-1.7c-0.4-0.5-0.9-1.4-0.6-2.7c0.1-0.2,0.2-0.4,0.3-0.6l15.6-27.3C462.6,71.1,464.3,70.1,466.1,70.1z"/>
		</g>
	</g>
	<g>
		<path d="M106.6,49.8v60.5h-8.1v-4.6H49.5v4.9h-7.8V49.8h28.1V33.9h7.9v15.9H106.6z M49.5,57.7v16.2h20.3V57.7H49.5z M49.5,98.1
			h20.3V81.5H49.5V98.1z M77.7,57.7v16.2h20.8V57.7H77.7z M98.5,98.1V81.5H77.7v16.6H98.5z"/>
	</g>
	<g>
		<path d="M569.8,35.2c5.1,11,15.1,23.4,23.7,30.1c-2,1.6-4.8,4.5-6.2,6.6c-2.1-1.8-4.1-3.9-6.2-6.3c0,0.9,0,2.1-0.1,2.8
			c-1.1,25.1-2.3,34.7-5,37.9c-2,2.3-3.9,3-6.9,3.3c-2.8,0.3-7.8,0.3-12.9,0.1c-0.2-2.3-1.2-5.6-2.6-7.8c5,0.4,9.9,0.4,11.9,0.4
			c1.6,0,2.6-0.2,3.4-1c1.9-1.9,2.9-9.7,3.8-28.8h-20.5c-2.2,16.1-7.6,30.8-28.8,38.4c-0.8-2-3.1-5.1-4.8-6.8
			c19.1-6.3,23.7-18.4,25.4-31.6h-14.7v-5.5c-2,2.1-3.9,3.9-5.9,5.6c-1.4-1.7-4.7-4.7-6.6-6.1c9.8-7,18.2-18.6,23-31.2l8.3,2.4
			c-4.1,10-10,19.6-16.7,27.1h49.1c-6.7-7.7-13.4-17.6-17.9-26.7L569.8,35.2z"/>
		<path d="M668.4,69.7c-3.3,10.5-8.9,18.7-15.9,25c6.9,4.3,15.3,7.4,25,9.1c-1.8,1.7-3.8,4.9-4.9,7c-10.4-2.2-19.1-5.9-26.3-11.1
			c-7.4,5.1-16,8.6-25.1,11c-0.8-2-2.7-5-4.2-6.8c8.3-1.9,16.2-5,22.9-9.4c-4.3-4-7.9-8.7-10.9-14c-5.8,9.5-13.5,17.4-23.9,23.6
			c-1.1-1.7-3.8-4.7-5.8-6.2c15-8.5,24.1-21.6,29.5-38.3h-11.3c-4.8,0-7.9,0.6-8.7,1.6c-0.5-1.7-1.8-5.3-2.6-7.2
			c1.2-0.3,2.2-1.5,3.3-3.3c0.9-1.7,4.2-8.3,5.6-14.7l8.2,1.4c-1.4,5.1-3.7,10.4-5.9,14.8H631c1.4-5.9,2.5-12.1,3.3-18.6l8.6,1.3
			c-0.8,6.1-1.8,11.9-3,17.3h34.9l-0.1,7.4H638c-0.8,2.7-1.8,5.4-2.8,7.9h26.4l1.5-0.3L668.4,69.7z M633.9,75.2
			C637,80.9,641,85.9,646,90c4.8-4.1,8.8-9,11.6-14.9H633.9z M662.9,50.5c-2.2-3.1-6.8-8.4-10.2-12.1l6.1-3.6
			c3.4,3.5,8.1,8.6,10.4,11.6L662.9,50.5z"/>
	</g>
</g>
</svg>
